<?xml version="1.0" encoding="UTF-8" standalone="no"?>
<!-- Created with Inkscape (http://www.inkscape.org/) -->

<svg
   xmlns:dc="http://purl.org/dc/elements/1.1/"
   xmlns:cc="http://creativecommons.org/ns#"
   xmlns:rdf="http://www.w3.org/1999/02/22-rdf-syntax-ns#"
   xmlns:svg="http://www.w3.org/2000/svg"
   xmlns="http://www.w3.org/2000/svg"
   xmlns:sodipodi="http://sodipodi.sourceforge.net/DTD/sodipodi-0.dtd"
   xmlns:inkscape="http://www.inkscape.org/namespaces/inkscape"
   id="svg2"
   version="1.1"
   inkscape:version="0.92.0 r15299"
   xml:space="preserve"
   width="576"
   height="516"
   viewBox="0 0 540 483.75"
   sodipodi:docname="logo.svg"><metadata
     id="metadata8"><rdf:RDF><cc:Work
         rdf:about=""><dc:format>image/svg+xml</dc:format><dc:type
           rdf:resource="http://purl.org/dc/dcmitype/StillImage" /><dc:title /></cc:Work></rdf:RDF></metadata><defs
     id="defs6"><clipPath
       clipPathUnits="userSpaceOnUse"
       id="clipPath16"><path
         d="M 0,387 H 432 V 0 H 0 Z"
         id="path18"
         inkscape:connector-curvature="0" /></clipPath></defs><sodipodi:namedview
     pagecolor="#ffffff"
     bordercolor="#666666"
     borderopacity="1"
     objecttolerance="10"
     gridtolerance="10"
     guidetolerance="10"
     inkscape:pageopacity="0"
     inkscape:pageshadow="2"
     inkscape:window-width="686"
     inkscape:window-height="455"
     id="namedview4"
     showgrid="false"
     inkscape:zoom="0.70710678"
     inkscape:cx="282.78813"
     inkscape:cy="245.41534"
     inkscape:window-x="603"
     inkscape:window-y="173"
     inkscape:window-maximized="0"
     inkscape:current-layer="g14" /><g
     id="g10"
     inkscape:groupmode="layer"
     inkscape:label="logo"
     transform="matrix(1.25,0,0,-1.25,0,483.75)"><g
       id="g12"><g
         id="g14"
         clip-path="url(#clipPath16)"><g
           id="g20"
           transform="translate(237.334,196)"><path
             d="m 0,0 c 0,0 18,-8.668 31.667,-7.334 13.667,1.334 39.667,-4 39.667,-4 0,0 -17.666,-14.666 -35,-11.333 C 19,-19.334 5.667,-5.001 -3.333,-6.334 -12.333,-7.667 0,0 0,0"
             style="fill:#825e40;fill-opacity:1;fill-rule:nonzero;stroke:none"
             id="path22"
             inkscape:connector-curvature="0" /></g><g
           id="g24"
           transform="translate(173.5,122)"><path
             d="m 0,0 c 0,0 -3.75,-8.75 -15,-9 -11.25,-0.25 -50,0 -50,0 0,0 -9,-0.5 -7,8.25 C -70,8 -7.75,14.5 0,0"
             style="fill:#ac794d;fill-opacity:1;fill-rule:nonzero;stroke:none"
             id="path26"
             inkscape:connector-curvature="0" /></g><g
           id="g28"
           transform="translate(203.9756,114.1572)"><path
             d="m 2.6870058,-1.2727922 c 47.9170002,3.459 22.2485782,31.9734772 10.8845782,46.2984772 -11.3599996,14.325 8.757144,35.062303 17.158144,43.954303 5.668,6.001 5.453472,22.770012 5.323472,29.548012 l -5.8222,-0.149 c 0,0 -1.794,-15.152 -4.362,-15.152 -2.567,0 -8.223,16.437 -8.223,16.437 L 3.78,118.379 C 3.008,112.472 11.226,105.794 14.057,99.63 16.879,93.467 11.226,76.772 4.548,71.892 -11.21,60.375 -29.374,78.995 -43.635,82.153 c -7.155,1.588 -14.757,-0.057 -21.927,1.809 -5.907,1.543 -10.788,9.762 -10.788,9.762 0,0 -12.588,-1.027 -12.588,-1.028 0.401,-10.975 10.825,-20.424 21.088,-22.393 3.704,-0.711 7.603,-0.304 11.259,-1.026 10.977,-2.168 21.229,-7.391 30.173,-14.051 3.966,-2.954 7.925,-5.917 11.873,-8.893 7.361,-5.546 15.478,-11.668 21.081,-19.081 1.033,-1.366 3.387,-4.943 1.607,-6.724 -7.193,-7.193 -21.055,1.283 -29.279,1.797 -4.411,0.279 -8.686,-3.475 -11.176,-6.675 -3.308,-4.246 -2.834,-7.968 -1.326,-12.834 0.878,-2.831 1.859,-5.792 2.23,-8.744 0.514,-4.11 -4.62,-14.635 -4.62,-14.635 l 24.7716,0.127 c -3.777,10.317 0.841635,18.1091864 12.8916349,18.8621864"
             style="fill:#ac794d;fill-opacity:1;fill-rule:nonzero;stroke:none"
             id="path30"
             inkscape:connector-curvature="0"
             sodipodi:nodetypes="cccccsccccccccccccccccccccc" /></g><g
           id="g32"
           transform="translate(291.7393,142.1357)"><path
             d="m 0,0 -23.374,-1.03 c 0,0 -14.635,-3.853 -16.947,0.772 -2.313,4.62 -16.184,14.639 -21.574,19.261 -4.234,3.63 -5.209,11.052 -3.45,16.018 1.937,5.468 7.126,10.291 10.542,14.875 1.448,1.94 2.904,3.868 4.406,5.762 0.729,0.921 3.609,5.622 4.68,5.721 50.084,4.623 39.296,31.59 39.296,31.59 L -20.807,92.455 C -21.828,76.017 -47.002,73.963 -47.002,73.963 l -0.768,16.695 -4.101,-0.108 c 0.131,-6.779 -0.584,-18.173 -6.252,-24.174 -8.4,-8.892 -30.135,-35.569 -18.774,-49.895 11.364,-14.325 37.05,-41.001 -10.867,-44.46 -12.049,-0.752 -15.193,-10.119 -11.416,-20.435 l 24.7,0.127 c -4.704,9.41 -0.142,10.212 8.845,10.635 6.716,0.315 14.109,0.714 19.693,4.813 3.548,2.594 5.164,5.457 6.206,9.608 0.132,0.538 0.891,6.587 1.469,6.536 8.473,-0.771 17.204,4.622 17.204,4.622 0,0 3.597,-1.282 13.615,-1.025 C 2.567,-12.843 0,0 0,0"
             style="fill:#825e40;fill-opacity:1;fill-rule:nonzero;stroke:none"
             id="path34"
             inkscape:connector-curvature="0" /></g><g
           id="g36"
           transform="translate(321.3066,45.1797)"><path
             d="M 0.8131728,1.5403 H -202.639 l -17.723,33.1367 h 237.31 z"
             style="fill:#c59d72;fill-opacity:1;fill-rule:nonzero;stroke:none"
             id="path38"
             inkscape:connector-curvature="0"
             sodipodi:nodetypes="ccccc" /></g><g
           id="g40"
           transform="translate(332.668,68.1045)"><path
             d="m -0.45,-0.584375 -224.66938,2.5e-4 L -231.804,11.8955 H 5.88625 Z"
             style="fill:#8f6548;fill-opacity:1;fill-rule:nonzero;stroke:none"
             id="path42"
             inkscape:connector-curvature="0"
             sodipodi:nodetypes="ccccc" /></g><path
           d="M 350.169,79.76 H 89.225 v 16.147 h 260.944 z"
           style="fill:#4d4c4e;fill-opacity:1;fill-rule:nonzero;stroke:none"
           id="path44"
           inkscape:connector-curvature="0"
           sodipodi:nodetypes="ccccc" /><path
           d="M 337.473,43.504 H 101.914 v 4.188 h 235.559 z"
           style="fill:#4d4c4e;fill-opacity:1;fill-rule:nonzero;stroke:none"
           id="path46"
           inkscape:connector-curvature="0" /><g
           id="g48"
           transform="translate(298.376,318.6084)"><path
             d="m 0,0 c -0.043,0.063 -0.093,0.121 -0.136,0.183 -16.432068,-21.606258 -44.101169,-57.529965 -125.901,-87.808 20.919,-0.022 107.049,-0.382 125.58,-0.382 24.309,0 44.006,19.704 44.006,44.01 C 43.549,-19.844 24.092,-0.247 0,0"
             style="fill:#7ba248;fill-opacity:1;fill-rule:nonzero;stroke:none"
             id="path50"
             inkscape:connector-curvature="0"
             sodipodi:nodetypes="cccssc" /></g><g
           id="g52"
           transform="translate(268.0674,334.3115)"><path
             d="m 0,0 c -3.225,0 -6.348,-0.411 -9.332,-1.184 -0.069,0.058 -0.145,0.112 -0.217,0.169 -13.475394,-22.231045 -32.509091,-50.180189 -99.003,-100.74 3.48,-1.016 7.156,-1.571 10.965,-1.571 0.544,0 1.3076,-0.001 1.9996,-0.002 86.892,14.156 116.4119,63.92055 125.7729,87.78855 C 23.4525,-6.14675 12.438,0 0,0"
             style="fill:#84b24d;fill-opacity:1;fill-rule:nonzero;stroke:none"
             id="path54"
             inkscape:connector-curvature="0"
             sodipodi:nodetypes="ccccsccc" /></g><g
           id="g56"
           transform="translate(258.5186,333.2969)"><path
             d="m 0,0 c -7.914,6.376 -17.967,10.2 -28.911,10.2 -22.352,0 -40.982,-15.902 -45.21,-37.006 -4.322,1.65 -9.014,2.563 -13.917,2.563 -21.562,0 -39.03,-17.477 -39.03,-39.036 0,-17.751 11.847,-32.722 28.065,-37.462 C -14.69,-84.688 -1.596,-25.908 0,0"
             style="fill:#99ca4c;fill-opacity:1;fill-rule:nonzero;stroke:none"
             id="path58"
             inkscape:connector-curvature="0" /></g><g
           id="g60"
           transform="translate(158.668,227.2085)"><path
             d="m 0,0 c -0.021,0.025 -0.038,0.049 -0.056,0.075 -14.1029,-14.036203 -26.509582,-25.826761 -50.978,-35.554 8.47,-0.009 43.346,-0.154 50.846,-0.154 9.841,0 17.821,7.977 17.821,17.819 C 17.633,-8.034 9.751,-0.099 0,0"
             style="fill:#7ba248;fill-opacity:1;fill-rule:nonzero;stroke:none"
             id="path62"
             inkscape:connector-curvature="0"
             sodipodi:nodetypes="cccssc" /></g><g
           id="g64"
           transform="translate(146.3945,233.5669)"><path
             d="m 0,0 c -1.306,0 -2.57,-0.166 -3.78,-0.479 -0.027,0.023 -0.058,0.045 -0.087,0.068 -9.131281,-10.772843 -17.261708,-22.693449 -40.084,-40.79 1.41,-0.412 2.894,-0.636 4.437,-0.636 h 0.753 C -3.578,-36.104 8.426,-15.948 12.218,-6.284 9.491,-2.481 5.036,0 0,0"
             style="fill:#84b24d;fill-opacity:1;fill-rule:nonzero;stroke:none"
             id="path66"
             inkscape:connector-curvature="0"
             sodipodi:nodetypes="ccccsccc" /></g><g
           id="g68"
           transform="translate(142.5273,233.1563)"><path
             d="m 0,0 c -3.204,2.582 -7.273,4.129 -11.705,4.129 -9.052,0 -16.595,-6.438 -18.306,-14.983 -1.751,0.668 -3.65,1.039 -5.635,1.039 -8.727,0 -15.801,-7.077 -15.801,-15.807 0,-7.187 4.796,-13.248 11.363,-15.168 C -5.948,-34.29 -0.646,-10.49 0,0"
             style="fill:#99ca4c;fill-opacity:1;fill-rule:nonzero;stroke:none"
             id="path70"
             inkscape:connector-curvature="0" /></g><g
           id="g72"
           transform="translate(153.585,168.3438)"><path
             d="m 0,0 c -0.026,0.037 -0.053,0.069 -0.078,0.104 -14.639809,-12.964315 -42.191833,-39.200416 -71.36,-49.769 11.856,-0.012 60.675,-0.218 71.177,-0.218 13.779,0 24.946,11.171 24.946,24.945 C 24.685,-11.246 13.656,-0.14 0,0"
             style="fill:#7ba248;fill-opacity:1;fill-rule:nonzero;stroke:none"
             id="path74"
             inkscape:connector-curvature="0"
             sodipodi:nodetypes="cccssc" /></g><g
           id="g76"
           transform="translate(136.4053,177.2441)"><path
             d="m 0,0 c -1.826,0 -3.598,-0.231 -5.288,-0.672 -0.041,0.035 -0.084,0.064 -0.125,0.099 -14.195607,-14.404157 -29.820046,-31.029437 -56.113,-57.101 1.97,-0.576 4.054,-0.889 6.214,-0.889 0.31,0 0.66,-0.002 1.053,-0.002 49.251,8.023 66.055,36.239 71.361,49.768 C 13.286,-3.474 7.049,0 0,0"
             style="fill:#84b24d;fill-opacity:1;fill-rule:nonzero;stroke:none"
             id="path78"
             inkscape:connector-curvature="0"
             sodipodi:nodetypes="ccccsccc" /></g><g
           id="g80"
           transform="translate(130.9922,176.6709)"><path
             d="m 0,0 c -4.483,3.612 -10.183,5.78 -16.386,5.78 -12.669,0 -23.228,-9.013 -25.625,-20.973 -2.449,0.934 -5.109,1.453 -7.887,1.453 -12.221,0 -22.123,-9.908 -22.123,-22.126 0,-10.062 6.714,-18.549 15.908,-21.235 C -8.324,-48 -0.902,-14.687 0,0"
             style="fill:#99ca4c;fill-opacity:1;fill-rule:nonzero;stroke:none"
             id="path82"
             inkscape:connector-curvature="0" /></g><g
           id="g84"
           transform="translate(348.3447,230.959)"><path
             d="m 0,0 c -0.025,0.036 -0.052,0.069 -0.078,0.104 -16.902551,-14.660371 -41.625147,-38.351887 -71.36,-49.769 11.857,-0.014 60.676,-0.218 71.177,-0.218 13.779,0 24.946,11.169 24.946,24.946 C 24.685,-11.248 13.657,-0.14 0,0"
             style="fill:#7ba248;fill-opacity:1;fill-rule:nonzero;stroke:none"
             id="path86"
             inkscape:connector-curvature="0"
             sodipodi:nodetypes="cccssc" /></g><g
           id="g88"
           transform="translate(331.166,239.8599)"><path
             d="m 0,0 c -1.827,0 -3.599,-0.233 -5.289,-0.671 -0.04,0.033 -0.084,0.063 -0.124,0.096 -9.671124,-11.57373 -29.255361,-37.252977 -56.114,-57.099 1.971,-0.576 4.055,-0.891 6.214,-0.891 0.31,0 0.661,-0.001 1.054,-0.001 49.251,8.024 66.054,36.24 71.36,49.769 C 13.286,-3.474 7.048,0 0,0"
             style="fill:#84b24d;fill-opacity:1;fill-rule:nonzero;stroke:none"
             id="path90"
             inkscape:connector-curvature="0"
             sodipodi:nodetypes="ccccsccc" /></g><g
           id="g92"
           transform="translate(325.7529,239.2847)"><path
             d="m 0,0 c -4.483,3.614 -10.183,5.781 -16.386,5.781 -12.67,0 -23.229,-9.013 -25.626,-20.975 -2.448,0.935 -5.108,1.453 -7.887,1.453 -12.221,0 -22.123,-9.906 -22.123,-22.126 0,-10.061 6.715,-18.547 15.908,-21.232 C -8.325,-48 -0.903,-14.685 0,0"
             style="fill:#99ca4c;fill-opacity:1;fill-rule:nonzero;stroke:none"
             id="path94"
             inkscape:connector-curvature="0" /></g><g
           id="g96"
           transform="translate(241.167,106.833)"><path
             d="M 0,0 C 0,0 15.166,-2.25 52.166,0.5 57.666,2 53.333,9.667 50.083,8.917 46.833,8.167 0,20.833 0,0"
             style="fill:#825e40;fill-opacity:1;fill-rule:nonzero;stroke:none"
             id="path98"
             inkscape:connector-curvature="0" /></g><g
           id="g100"
           transform="translate(316.1924,152.9297)"><path
             d="m 0,0 c -0.021,0.032 -0.044,0.061 -0.063,0.09 -15.255023,-13.188056 -31.229079,-32.063887 -60.622,-42.276 10.074,-0.011 51.543,-0.184 60.465,-0.184 11.702,0 21.191,9.485 21.191,21.187 C 20.971,-9.552 11.602,-0.115 0,0"
             style="fill:#7ba248;fill-opacity:1;fill-rule:nonzero;stroke:none"
             id="path102"
             inkscape:connector-curvature="0"
             sodipodi:nodetypes="cccssc" /></g><g
           id="g104"
           transform="translate(301.6006,160.4932)"><path
             d="m 0,0 c -1.554,0 -3.057,-0.199 -4.495,-0.57 -0.032,0.026 -0.069,0.052 -0.105,0.081 -10.099809,-12.755843 -22.910192,-29.745134 -47.664,-48.504 1.676,-0.492 3.445,-0.756 5.277,-0.756 h 0.894 c 41.838,6.817 56.114,30.784 60.621,42.275 C 11.283,-2.952 5.989,0 0,0"
             style="fill:#84b24d;fill-opacity:1;fill-rule:nonzero;stroke:none"
             id="path106"
             inkscape:connector-curvature="0"
             sodipodi:nodetypes="ccccsccc" /></g><g
           id="g108"
           transform="translate(297.001,160.0039)"><path
             d="m 0,0 c -3.809,3.071 -8.648,4.909 -13.917,4.909 -10.765,0 -19.732,-7.656 -21.767,-17.815 -2.084,0.793 -4.341,1.232 -6.704,1.232 -10.38,0 -18.791,-8.414 -18.791,-18.794 0,-8.548 5.705,-15.755 13.515,-18.036 C -7.071,-40.775 -0.767,-12.473 0,0"
             style="fill:#99ca4c;fill-opacity:1;fill-rule:nonzero;stroke:none"
             id="path110"
             inkscape:connector-curvature="0" /></g></g></g></g></svg>